<?xml version="1.0" encoding="UTF-8" standalone="no"?>
<!-- Created with Inkscape (http://www.inkscape.org/) -->

<svg
   xmlns:dc="http://purl.org/dc/elements/1.1/"
   xmlns:cc="http://creativecommons.org/ns#"
   xmlns:rdf="http://www.w3.org/1999/02/22-rdf-syntax-ns#"
   xmlns:svg="http://www.w3.org/2000/svg"
   xmlns="http://www.w3.org/2000/svg"
   xmlns:sodipodi="http://sodipodi.sourceforge.net/DTD/sodipodi-0.dtd"
   xmlns:inkscape="http://www.inkscape.org/namespaces/inkscape"
   id="svg3141"
   version="1.1"
   inkscape:version="0.92.1 r15371"
   width="1339.5038"
   height="1323.0339"
   xml:space="preserve"
   sodipodi:docname="Registrar.svg"
   inkscape:export-filename="/corp/docs/SSW/talks/brski/Registrar.png"
   inkscape:export-xdpi="100"
   inkscape:export-ydpi="100"><metadata
     id="metadata3147"><rdf:RDF><cc:Work
         rdf:about=""><dc:format>image/svg+xml</dc:format><dc:type
           rdf:resource="http://purl.org/dc/dcmitype/StillImage" /><dc:title></dc:title></cc:Work></rdf:RDF></metadata><defs
     id="defs3145" /><sodipodi:namedview
     pagecolor="#ffffff"
     bordercolor="#666666"
     borderopacity="1"
     objecttolerance="10"
     gridtolerance="10"
     guidetolerance="10"
     inkscape:pageopacity="0"
     inkscape:pageshadow="2"
     inkscape:window-width="1323"
     inkscape:window-height="1018"
     id="namedview3143"
     showgrid="false"
     inkscape:zoom="0.37915309"
     inkscape:cx="354.69252"
     inkscape:cy="647.24206"
     inkscape:window-x="280"
     inkscape:window-y="0"
     inkscape:window-maximized="0"
     inkscape:current-layer="g3149"
     fit-margin-top="0"
     fit-margin-left="0"
     fit-margin-right="0"
     fit-margin-bottom="0" /><g
     id="g3149"
     inkscape:groupmode="layer"
     inkscape:label="immigration2"
     transform="matrix(1.25,0,0,-1.25,262.60064,1059.5419)"><rect
       style="opacity:1;fill:#008000;fill-opacity:1;fill-rule:nonzero;stroke:#32f014;stroke-width:0.81668121;stroke-linecap:round;stroke-linejoin:round;stroke-miterlimit:4;stroke-dasharray:none;stroke-dashoffset:0;stroke-opacity:1"
       id="rect4491"
       width="735.49664"
       height="726.89429"
       x="-373.51324"
       y="-822.03101"
       transform="matrix(0.69220504,-0.72170089,-0.72170089,-0.69220504,0,0)" /><path
       inkscape:connector-curvature="0"
       id="path3153"
       style="fill:#000000;fill-opacity:1;fill-rule:nonzero;stroke:none;stroke-width:0.25600001"
       d="M 88.639999,635.20001 C 44.634881,635.18976 19.85001,612.39552 19.776,565.824 V 85.567999 C 19.85001,42.124032 42.132991,19.312998 86.080001,19.264 H 568.38401 c 44.01919,0.049 66.33727,21.723903 66.30398,66.303999 V 565.824 c 0.0333,45.43488 -22.28479,69.36576 -67.83998,69.37601 0,0 -478.275081,0.14335 -478.208011,0" /><path
       inkscape:connector-curvature="0"
       id="path3155"
       style="fill:none;stroke:#ffffff;stroke-width:3.63520002;stroke-linecap:butt;stroke-linejoin:miter;stroke-miterlimit:10;stroke-dasharray:none;stroke-opacity:1"
       d="M 88.639999,635.20001 C 44.634881,635.18976 19.85001,612.39552 19.776,565.824 V 85.567999 C 19.85001,42.124032 42.132991,19.312998 86.080001,19.264 H 568.38401 c 44.01919,0.049 66.33727,21.723903 66.30398,66.303999 V 565.824 c 0.0333,45.43488 -22.28479,69.36576 -67.83998,69.37601 0,0 -478.275081,0.14335 -478.208011,0 z" /><path
       inkscape:connector-curvature="0"
       id="path3159"
       style="fill:#ffffff;fill-opacity:1;fill-rule:nonzero;stroke:none;stroke-width:0.25600001"
       d="M 316.48001,328.25599 V 216.128 l 122.88,162.81599 h -124.416 C 298.74689,378.95424 288.29184,371.89121 278.592,360 l -39.936,-53.50399 -56.832,45.312 C 155.45702,371.25377 125.856,333.45535 151.36,313.66399 L 226.112,254.784 c 15.81004,-11.53586 28.61006,-6.4699 35.584,0.51199 l 54.78401,72.96" /><path
       inkscape:connector-curvature="0"
       id="path3161"
       style="fill:#ffffff;fill-opacity:1;fill-rule:nonzero;stroke:none;stroke-width:0.25600001"
       d="m 310.08,525.37601 h 134.4 v -37.632 H 335.93599 l -25.85599,37.632" /><path
       inkscape:connector-curvature="0"
       id="path3163"
       style="fill:#ffffff;fill-opacity:1;fill-rule:nonzero;stroke:none;stroke-width:0.25600001"
       d="M 444.73601,475.968 H 336.96 L 315.19999,448.57601 H 340.8 c -0.11009,-30.25409 23.69791,-51.50976 51.456,-51.456 26.79809,-0.0538 52.58753,21.20191 52.48001,52.47998 V 475.968" /><path
       inkscape:connector-curvature="0"
       id="path3165"
       style="fill:#ffffff;fill-opacity:1;fill-rule:nonzero;stroke:none;stroke-width:0.25600001"
       d="m 470.08001,378.432 c 14.3027,-0.0307 35.02591,-7.33697 35.07199,-38.65601 V 126.016 H 316.73599 v 57.856 h 137.21602 v 26.624 H 345.15199 l 124.92802,167.936" /><path
       inkscape:connector-curvature="0"
       id="path3167"
       style="fill:#000000;fill-opacity:1;fill-rule:nonzero;stroke:none;stroke-width:0.25600001"
       d="m 160.832,493.37599 h 53.76 c 3.00902,0.0103 7.05792,-2.0352 7.168,-6.144 v -75.51998 c -0.11008,-3.69665 -2.63987,-6.25409 -6.144,-6.144 h -6.144 v 43.776 c 0.032,4.67712 -0.98099,9.792 -7.68,14.84798 l -40.96,29.184" /><rect
       style="opacity:1;fill:none;fill-opacity:1;fill-rule:nonzero;stroke:#008000;stroke-width:30.23742104;stroke-linecap:round;stroke-linejoin:round;stroke-miterlimit:4;stroke-dasharray:none;stroke-dashoffset:0;stroke-opacity:1"
       id="rect4491-4"
       width="735.98547"
       height="727.76007"
       x="-375.2001"
       y="-819.41949"
       transform="matrix(0.69673898,-0.71732474,-0.7260461,-0.68764603,0,0)" /><g
       id="g5041"
       transform="matrix(0.29587903,0,0,-0.29587903,64.822921,538.68742)"
       style="fill:#ffffff"><title
         id="title5033">Layer 1</title><g
         id="layer1"
         style="fill:#ffffff"><g
           id="g3848"
           style="fill:#ffffff"><path
             d="m 363.11868,491.13437 c 0,26.94418 -21.84259,48.78677 -48.78677,48.78677 -26.94422,0 -48.78677,-21.84259 -48.78677,-48.78677 0,-26.94421 21.84255,-48.78677 48.78677,-48.78677 26.94421,0 48.78677,21.84256 48.78677,48.78677 z"
             id="path3812"
             inkscape:connector-curvature="0"
             style="fill:#ffffff" /><path
             id="path3814"
             d="m 324.48761,153.14175 c -88.70625,0 -167.24805,33.72296 -215.50001,85.5625 l 40,61.65625 c 35.1157,-46.92077 100.54559,-78.46875 175.50001,-78.46875 69.39709,0 130.63977,27.06258 167.21875,68.3125 L 533.17511,231.673 C 484.51685,183.82477 409.12433,153.14175 324.48761,153.14175 Z"
             inkscape:connector-curvature="0"
             style="fill:#ffffff" /><path
             id="path3822"
             d="m 317.36261,307.423 c -50.45666,0 -96.51721,18.78113 -131.56251,49.6875 l 33.78125,52.09375 c 26.40631,-22.23529 60.51521,-35.65625 97.78126,-35.65625 34.98395,0 67.17682,11.81479 92.84375,31.65625 l 35.84375,-50.625 C 411.37329,325.15936 366.45197,307.423 317.36261,307.423 Z"
             inkscape:connector-curvature="0"
             style="fill:#ffffff" /><path
             d="M 323.35644,0 C 206.77238,0 102.04878,45.127411 29.918945,116.8125 l 37.90625,58.40625 C 121.12592,113.51468 214.83911,72.53125 321.60644,72.53125 c 105.94617,0 199.07203,40.33951 252.59375,101.25 L 615.51269,115.5 C 543.40564,44.570892 439.23981,0 323.35644,0 Z"
             id="path3824"
             inkscape:connector-curvature="0"
             style="fill:#ffffff" /></g></g></g></g></svg>